<?xml version="1.0" standalone="no"?>
<!DOCTYPE svg PUBLIC "-//W3C//DTD SVG 20010904//EN"
 "http://www.w3.org/TR/2001/REC-SVG-20010904/DTD/svg10.dtd">
<svg version="1.0" xmlns="http://www.w3.org/2000/svg"
 width="311.000000pt" height="170.000000pt" viewBox="0 0 311.000000 170.000000"
 preserveAspectRatio="xMidYMid meet">
<metadata>
Created by potrace 1.16, written by Peter Selinger 2001-2019
</metadata>
<g transform="translate(0.000000,170.000000) scale(0.100000,-0.100000)"
fill="#000000" stroke="none">
<path d="M2632 1541 c-10 -6 -8 -21 9 -66 l22 -59 -25 -20 c-30 -25 -53 -44
-92 -73 l-28 -23 27 -10 c14 -5 66 -10 115 -10 l88 0 7 -37 c3 -21 14 -64 22
-95 23 -81 40 -77 82 22 l33 80 74 0 c46 0 74 4 74 11 0 6 -21 37 -46 70 -44
58 -46 62 -39 109 4 27 4 53 1 58 -3 4 -39 1 -80 -7 -74 -15 -76 -15 -123 8
-84 41 -109 50 -121 42z"/>
<path d="M144 1476 c-32 -14 -64 -51 -64 -73 0 -10 36 -13 155 -13 l155 0 0
-345 c0 -304 2 -349 16 -371 19 -28 63 -54 94 -54 20 0 20 4 20 385 l0 385
116 0 c65 0 125 5 137 11 29 15 56 50 57 72 0 16 -22 17 -327 17 -254 -1 -335
-4 -359 -14z"/>
<path d="M1280 1102 c0 -250 2 -291 16 -311 15 -21 70 -51 94 -51 7 0 10 94
10 281 0 334 1 331 -92 359 l-28 9 0 -287z"/>
<path d="M2401 1210 c-18 -4 -52 -21 -74 -37 l-41 -28 -26 28 c-20 22 -36 30
-66 31 l-39 1 -3 -232 -2 -233 65 0 65 0 0 144 c0 80 4 156 10 170 14 38 66
66 124 66 41 0 53 -5 82 -34 l34 -34 0 -105 c0 -131 10 -162 62 -188 69 -35
71 -32 66 164 -3 159 -5 175 -27 210 -12 21 -39 46 -60 56 -44 23 -124 33
-170 21z"/>
<path d="M758 1195 c-32 -18 -48 -44 -48 -78 l0 -24 52 13 c73 19 156 18 198
-4 36 -17 69 -68 54 -82 -5 -4 -43 -3 -84 3 -136 19 -257 -18 -286 -89 -48
-115 31 -199 186 -199 63 0 85 5 129 28 l53 27 20 -25 c15 -20 28 -25 64 -25
l44 0 -1 163 c0 146 -2 166 -22 206 -34 70 -93 95 -227 99 -79 1 -112 -2 -132
-13z m246 -257 c14 -7 17 -17 12 -40 -11 -54 -68 -88 -150 -88 -44 0 -60 5
-85 26 -49 41 -35 84 36 110 41 15 152 10 187 -8z"/>
<path d="M1629 1187 c-25 -17 -35 -31 -37 -56 -3 -32 -2 -33 25 -27 57 12 152
18 186 12 45 -8 87 -48 87 -81 0 -24 -2 -25 -42 -18 -76 14 -190 9 -239 -10
-124 -48 -141 -180 -30 -245 40 -23 57 -27 126 -27 67 0 89 4 131 26 l51 26
22 -23 c18 -18 34 -24 68 -24 l45 0 -4 168 c-3 130 -7 174 -20 197 -41 76
-107 105 -243 105 -79 0 -97 -3 -126 -23z m248 -244 c7 -3 13 -20 13 -37 0
-56 -61 -96 -146 -96 -127 0 -160 111 -42 141 32 8 147 2 175 -8z"/>
<path d="M1033 395 c-107 -54 -134 -168 -60 -252 40 -46 82 -63 152 -63 53 0
125 25 139 49 4 5 -5 23 -19 40 l-26 30 -32 -19 c-43 -27 -80 -25 -116 6 -40
33 -43 83 -6 119 29 30 71 32 122 8 35 -16 36 -16 54 8 10 13 18 31 16 38 -4
24 -62 52 -119 57 -44 5 -62 1 -105 -21z"/>
<path d="M1302 248 l3 -163 50 0 50 0 3 58 c2 46 6 57 20 57 27 0 38 -12 64
-65 23 -49 24 -50 72 -53 27 -2 52 0 57 5 4 4 -8 34 -26 65 l-34 57 29 30 c56
55 35 131 -43 160 -16 6 -78 11 -138 11 l-109 0 2 -162z"/>
<path d="M1707 253 c-40 -93 -64 -160 -59 -165 5 -5 29 -8 53 -6 36 2 46 8 57
31 12 25 18 27 72 27 54 0 60 -2 72 -27 11 -24 20 -28 62 -31 27 -2 52 0 56 5
4 4 -25 78 -65 163 l-72 155 -54 3 -54 2 -68 -157z"/>
</g>
</svg>
