<?xml version="1.0" encoding="UTF-8"?>
<svg xmlns="http://www.w3.org/2000/svg" xmlns:xlink="http://www.w3.org/1999/xlink" width="415pt" height="180pt" viewBox="0 0 415 180" version="1.1">
<g id="surface1">
<path style=" stroke:none;fill-rule:nonzero;fill:rgb(0%,0%,0%);fill-opacity:1;" d="M 350.988281 16.796875 C 349.65625 17.429688 349.921875 19.015625 352.191406 23.769531 L 355.125 30 L 351.789062 32.113281 C 347.789062 34.753906 344.722656 36.761719 339.519531 39.824219 L 335.789062 42.253906 L 339.386719 43.308594 C 341.253906 43.839844 348.1875 44.367188 354.722656 44.367188 L 366.457031 44.367188 L 367.390625 48.273438 C 367.792969 50.492188 369.257812 55.035156 370.324219 58.308594 C 373.394531 66.867188 375.660156 66.445312 381.261719 55.984375 L 385.660156 47.535156 L 395.53125 47.535156 C 401.664062 47.535156 405.398438 47.113281 405.398438 46.375 C 405.398438 45.738281 402.597656 42.464844 399.265625 38.980469 C 393.398438 32.851562 393.128906 32.429688 394.0625 27.464844 C 394.597656 24.613281 394.597656 21.867188 394.195312 21.339844 C 393.796875 20.914062 388.996094 21.230469 383.527344 22.078125 C 373.660156 23.660156 373.394531 23.660156 367.125 21.230469 C 355.925781 16.902344 352.589844 15.949219 350.988281 16.796875 Z M 350.988281 16.796875 "/>
<path style=" stroke:none;fill-rule:nonzero;fill:rgb(0%,0%,0%);fill-opacity:1;" d="M 19.203125 23.660156 C 14.9375 25.140625 10.667969 29.050781 10.667969 31.375 C 10.667969 32.429688 15.46875 32.746094 31.339844 32.746094 L 52.007812 32.746094 L 52.007812 69.191406 C 52.007812 101.304688 52.273438 106.054688 54.140625 108.378906 C 56.675781 111.339844 62.542969 114.085938 66.675781 114.085938 C 69.34375 114.085938 69.34375 113.660156 69.34375 73.414062 L 69.34375 32.746094 L 84.8125 32.746094 C 93.480469 32.746094 101.484375 32.21875 103.082031 31.585938 C 106.949219 30 110.550781 26.304688 110.683594 23.980469 C 110.683594 22.289062 107.75 22.183594 67.078125 22.183594 C 33.207031 22.289062 22.402344 22.605469 19.203125 23.660156 Z M 19.203125 23.660156 "/>
<path style=" stroke:none;fill-rule:nonzero;fill:rgb(0%,0%,0%);fill-opacity:1;" d="M 170.695312 63.167969 C 170.695312 89.578125 170.960938 93.910156 172.828125 96.019531 C 174.828125 98.238281 182.164062 101.410156 185.363281 101.410156 C 186.296875 101.410156 186.695312 91.480469 186.695312 71.726562 C 186.695312 36.445312 186.828125 36.761719 174.429688 33.804688 L 170.695312 32.851562 Z M 170.695312 63.167969 "/>
<path style=" stroke:none;fill-rule:nonzero;fill:rgb(0%,0%,0%);fill-opacity:1;" d="M 320.183594 51.761719 C 317.785156 52.183594 313.25 53.980469 310.316406 55.667969 L 304.847656 58.625 L 301.382812 55.667969 C 298.714844 53.34375 296.582031 52.5 292.582031 52.394531 L 287.378906 52.289062 L 286.980469 76.796875 L 286.710938 101.410156 L 304.050781 101.410156 L 304.050781 86.195312 C 304.050781 77.746094 304.582031 69.71875 305.382812 68.238281 C 307.25 64.226562 314.183594 61.269531 321.917969 61.269531 C 327.386719 61.269531 328.984375 61.796875 332.851562 64.859375 L 337.386719 68.449219 L 337.386719 79.542969 C 337.386719 93.378906 338.722656 96.65625 345.65625 99.402344 C 354.855469 103.097656 355.125 102.78125 354.457031 82.078125 C 354.058594 65.28125 353.789062 63.589844 350.855469 59.894531 C 349.257812 57.675781 345.65625 55.035156 342.855469 53.980469 C 336.988281 51.550781 326.320312 50.492188 320.183594 51.761719 Z M 320.183594 51.761719 "/>
<path style=" stroke:none;fill-rule:nonzero;fill:rgb(0%,0%,0%);fill-opacity:1;" d="M 101.082031 53.34375 C 96.816406 55.246094 94.683594 57.992188 94.683594 61.585938 L 94.683594 64.121094 L 101.617188 62.746094 C 111.351562 60.738281 122.417969 60.84375 128.019531 63.167969 C 132.820312 64.964844 137.222656 70.351562 135.222656 71.832031 C 134.554688 72.253906 129.488281 72.148438 124.019531 71.515625 C 105.882812 69.507812 89.746094 73.414062 85.878906 80.914062 C 79.480469 93.0625 90.015625 101.9375 110.683594 101.9375 C 119.085938 101.9375 122.019531 101.410156 127.886719 98.980469 L 134.953125 96.125 L 137.621094 98.769531 C 139.621094 100.878906 141.355469 101.410156 146.15625 101.410156 L 152.023438 101.410156 L 151.890625 84.191406 C 151.890625 68.769531 151.625 66.65625 148.957031 62.429688 C 144.421875 55.035156 136.554688 52.394531 118.6875 51.972656 C 108.152344 51.867188 103.75 52.183594 101.082031 53.34375 Z M 133.886719 80.492188 C 135.753906 81.230469 136.15625 82.289062 135.488281 84.71875 C 134.023438 90.421875 126.421875 94.015625 115.484375 94.015625 C 109.617188 94.015625 107.484375 93.484375 104.148438 91.269531 C 97.617188 86.9375 99.484375 82.394531 108.949219 79.648438 C 114.417969 78.0625 129.222656 78.589844 133.886719 80.492188 Z M 133.886719 80.492188 "/>
<path style=" stroke:none;fill-rule:nonzero;fill:rgb(0%,0%,0%);fill-opacity:1;" d="M 217.234375 54.191406 C 213.902344 55.984375 212.566406 57.464844 212.300781 60.105469 C 211.902344 63.484375 212.035156 63.589844 215.632812 62.957031 C 223.234375 61.691406 235.90625 61.054688 240.4375 61.691406 C 246.441406 62.535156 252.039062 66.761719 252.039062 70.246094 C 252.039062 72.78125 251.773438 72.886719 246.441406 72.148438 C 236.304688 70.667969 221.101562 71.195312 214.566406 73.203125 C 198.03125 78.273438 195.765625 92.21875 210.566406 99.085938 C 215.902344 101.515625 218.167969 101.9375 227.371094 101.9375 C 236.304688 101.9375 239.238281 101.515625 244.839844 99.191406 L 251.640625 96.445312 L 254.574219 98.875 C 256.976562 100.773438 259.109375 101.410156 263.640625 101.410156 L 269.644531 101.410156 L 269.109375 83.660156 C 268.710938 69.929688 268.175781 65.28125 266.441406 62.851562 C 260.976562 54.824219 252.175781 51.761719 234.039062 51.761719 C 223.503906 51.761719 221.101562 52.078125 217.234375 54.191406 Z M 250.308594 79.964844 C 251.242188 80.28125 252.039062 82.078125 252.039062 83.875 C 252.039062 89.789062 243.90625 94.015625 232.570312 94.015625 C 215.632812 94.015625 211.234375 82.289062 226.96875 79.121094 C 231.238281 78.273438 246.574219 78.910156 250.308594 79.964844 Z M 250.308594 79.964844 "/>
<path style=" stroke:none;fill-rule:nonzero;fill:rgb(0%,0%,0%);fill-opacity:1;" d="M 137.753906 137.851562 C 123.488281 143.554688 119.886719 155.597656 129.753906 164.472656 C 135.089844 169.332031 140.6875 171.125 150.023438 171.125 C 157.09375 171.125 166.695312 168.484375 168.558594 165.949219 C 169.09375 165.421875 167.894531 163.519531 166.027344 161.726562 L 162.558594 158.554688 L 158.292969 160.5625 C 152.558594 163.414062 147.625 163.203125 142.824219 159.929688 C 137.488281 156.445312 137.089844 151.160156 142.023438 147.359375 C 145.890625 144.191406 151.492188 143.980469 158.292969 146.515625 C 162.960938 148.203125 163.09375 148.203125 165.492188 145.667969 C 166.828125 144.296875 167.894531 142.394531 167.625 141.65625 C 167.09375 139.121094 159.359375 136.160156 151.757812 135.632812 C 145.890625 135.105469 143.488281 135.527344 137.753906 137.851562 Z M 137.753906 137.851562 "/>
<path style=" stroke:none;fill-rule:nonzero;fill:rgb(0%,0%,0%);fill-opacity:1;" d="M 173.628906 153.378906 L 174.027344 170.597656 L 187.363281 170.597656 L 187.761719 164.472656 C 188.03125 159.613281 188.5625 158.449219 190.429688 158.449219 C 194.03125 158.449219 195.5 159.71875 198.964844 165.316406 C 202.03125 170.492188 202.164062 170.597656 208.566406 170.914062 C 212.167969 171.125 215.5 170.914062 216.167969 170.386719 C 216.703125 169.964844 215.101562 166.796875 212.699219 163.519531 L 208.167969 157.5 L 212.035156 154.332031 C 219.5 148.519531 216.703125 140.492188 206.300781 137.429688 C 204.167969 136.796875 195.898438 136.269531 187.898438 136.269531 L 173.359375 136.269531 Z M 173.628906 153.378906 "/>
<path style=" stroke:none;fill-rule:nonzero;fill:rgb(0%,0%,0%);fill-opacity:1;" d="M 227.636719 152.851562 C 222.300781 162.675781 219.101562 169.753906 219.769531 170.28125 C 220.433594 170.808594 223.636719 171.125 226.835938 170.914062 C 231.636719 170.703125 232.972656 170.070312 234.4375 167.640625 C 236.039062 165 236.839844 164.789062 244.039062 164.789062 C 251.242188 164.789062 252.039062 165 253.640625 167.640625 C 255.109375 170.175781 256.308594 170.597656 261.910156 170.914062 C 265.507812 171.125 268.84375 170.914062 269.375 170.386719 C 269.910156 169.964844 266.042969 162.148438 260.707031 153.167969 L 251.105469 136.796875 L 243.90625 136.480469 L 236.703125 136.269531 Z M 227.636719 152.851562 "/>
</g>
</svg>
